<?xml version="1.0" encoding="utf-8"?>
<!-- Generator: Adobe Illustrator 16.0.0, SVG Export Plug-In . SVG Version: 6.00 Build 0)  -->
<!DOCTYPE svg PUBLIC "-//W3C//DTD SVG 1.1//EN" "http://www.w3.org/Graphics/SVG/1.1/DTD/svg11.dtd">
<svg version="1.1" id="Layer_1" xmlns="http://www.w3.org/2000/svg" xmlns:xlink="http://www.w3.org/1999/xlink" x="0px" y="0px"
	 width="133.15px" height="86px" viewBox="0 0 133.15 86" enable-background="new 0 0 133.15 86" xml:space="preserve">
<g>
	<path fill="#FF0000" d="M48,46.23V56.8H18.7V51.4h21.8V45.68c-0.37-0.029-0.74-0.068-1.1-0.1v4.82h-6v-5.42
		c-0.34-0.041-0.67-0.08-1-0.121V50.4h-6.5V44.02c-0.34-0.039-0.67-0.09-1-0.14V50.4h-6.2V45.8c0-1.3,1.1-2.4,2.5-2.4h0.56
		c-2.539-0.41-5-0.85-7.359-1.32V66.3c0,1.4,1.1,2.4,2.5,2.4h32.8c1.4,0,2.5-1.101,2.5-2.4c0,0,0-12.079,0-19.85
		C50.79,46.391,49.39,46.311,48,46.23z M25.3,64.5h-4.1v0.1c-1.4,0-2.5-1.1-2.5-2.5V57.7h6.6V64.5z M32.4,64.6h-6v-6.8h6V64.6z
		 M39.9,64.6h-6.4v-6.8h6.4V64.6z M48,62.2c0,1.399-1.1,2.5-2.5,2.5h-4.6v-6.8H48V62.2z"/>
	<g>
		<path fill="#FF0000" d="M70.3,46.82c-0.02,0.75-0.069,1.479-0.13,2.209c-0.09,1.021-0.21,2.021-0.359,3
			c-0.17,1.051-0.36,1.99-0.561,2.791c-0.229,0.91-0.479,1.75-0.76,2.5c-0.3,0.81-0.62,1.5-0.96,2.08
			c-0.33,0.606-0.71,1.146-1.15,1.629c-0.43,0.461-0.88,0.811-1.35,1.051c-0.51,0.25-1.03,0.38-1.54,0.38
			c-0.15,0.011-0.31,0.021-0.46,0.021h-0.45V46.781c-1.88-0.03-3.74-0.07-5.58-0.131l0.01,22.051l6.75-0.04
			c0.83,0,1.62-0.091,2.36-0.261c0.83-0.209,1.57-0.5,2.23-0.893c0.729-0.42,1.42-0.979,2.06-1.688c0.69-0.75,1.3-1.629,1.83-2.629
			c0.59-1.104,1.12-2.354,1.57-3.75c0.479-1.49,0.899-3.16,1.239-5.012c0.36-1.922,0.66-4.092,0.891-6.512
			c0.04-0.391,0.069-0.777,0.109-1.18C74.15,46.779,72.23,46.811,70.3,46.82z"/>
		<path fill="#FF0000" d="M92.53,45.939l0.011,1.729h5.5V45.48C96.23,45.65,94.4,45.8,92.53,45.939z M90.38,46.09
			c-1.819,0.131-3.672,0.24-5.529,0.32L84.839,68.7H92.3V62.6h-1.92V46.09z M77.26,47.67h5.521v-1.16
			c-1.82,0.08-3.66,0.15-5.521,0.2V47.67z"/>
		<path fill="#FF0000" d="M120.03,47.67v-5.23c-6.18,1.169-12.95,2.14-20.18,2.86c-0.12,0.851-0.182,1.812-0.182,2.86V68.7h15.99
			c0.578,0,1.129-0.16,1.641-0.49c0.529-0.36,1-0.88,1.397-1.569c0.41-0.688,0.74-1.551,0.972-2.58
			c0.24-1.041,0.358-2.24,0.358-3.59V55.4H114.5v4.279c-0.021,0.817-0.131,1.459-0.317,1.92c-0.189,0.459-0.46,0.697-0.79,0.697
			l-8.17,0.04V48.811c0-0.369,0.027-0.74,0.066-1.107c0.041-0.37,0.11-0.689,0.2-0.96c0.101-0.271,0.22-0.479,0.36-0.632
			c0.147-0.148,0.311-0.229,0.5-0.229h8.14v1.762L120.03,47.67z"/>
	</g>
</g>
<g>
	<path opacity="0.8" fill="#FF5050" enable-background="new    " d="M52.2,41.1c0,0.4,0,0.2,0,0.4v4.95
		c-1.41-0.062-2.81-0.142-4.2-0.22V45.8c0-1.3-1.1-2.4-2.5-2.4h-5v2.28c-0.37-0.029-0.74-0.068-1.1-0.1V43.4h-6v1.581
		c-0.34-0.039-0.67-0.08-1-0.119V43.4h-6.5v0.62c-0.34-0.039-0.67-0.09-1-0.14V43.4H21.76c-2.539-0.41-5-0.85-7.359-1.32V29.7
		c0-1.8,0.28-6.37,3.08-9.37c2.6-2.9,7.72-4.13,11.02-4.13h21c1.4,0,2.5,1,2.5,2.4c0,0,0,5.4,0,12.5c-2.3,0-5.899-0.1-5.7-0.4
		c1.301-4.8-4.1-8.9-9.199-8.9c-5.101,0-9.2,4-9.2,8.9c0,1.4,0.399,2.7,1,3.9c1.5,3,4.7,5,8.3,5H50C50.7,39.6,52.2,40.4,52.2,41.1z"
		/>
	<path opacity="0.8" fill="#FF5050" enable-background="new    " d="M67.3,20.3C66.4,19.7,64.9,19.4,63,19.4c-2,0-3.399,0.3-4.3,0.9
		c-1.1,0.7-1.7,2-1.7,3.8v3.6c0,1.8,0.601,3.1,1.7,3.8c0.9,0.6,2.4,0.9,4.3,0.9c2,0,3.4-0.3,4.3-0.9c1.101-0.7,1.7-2,1.7-3.8v-3.6
		C69,22.3,68.4,21,67.3,20.3z M65.4,27.3c0,0.9-0.2,1.5-0.5,1.7s-1,0.3-1.9,0.3c-1,0-1.6-0.1-1.899-0.3
		c-0.4-0.3-0.601-0.8-0.601-1.8v-2.9c0-0.9,0.2-1.5,0.601-1.7C61.4,22.4,62,22.3,63,22.3s1.601,0.1,1.9,0.3
		c0.399,0.3,0.5,0.8,0.5,1.7V27.3z"/>
	<path opacity="0.8" fill="#FF5050" enable-background="new    " d="M62.58,39.83v6.949C60.7,46.75,58.84,46.71,57,46.65V45.88
		l-0.029-5.8l0.289-0.25H62.58z"/>
	<path opacity="0.8" fill="#FF5050" enable-background="new    " d="M76.42,39.83c-0.08,2.48-0.189,4.779-0.37,6.91
		c-1.899,0.039-3.819,0.068-5.75,0.08c0.021-0.313,0.03-0.62,0.04-0.94H68.19v-6.05H76.42z"/>
	<path opacity="0.8" fill="#FF5050" enable-background="new    " d="M98.041,39.83v5.65c-1.811,0.17-3.641,0.316-5.511,0.459v-0.892
		h-2.15v1.04c-1.819,0.13-3.672,0.24-5.529,0.32v-1.381h-2.08l0.01,1.479c-1.82,0.08-3.66,0.15-5.521,0.2v-6.88L98.041,39.83
		L98.041,39.83z"/>
	<path opacity="0.8" fill="#FF5050" enable-background="new    " d="M120.03,39.83v2.61c-6.18,1.169-12.95,2.14-20.18,2.86
		c0.04-0.34,0.101-0.659,0.158-0.97c0.222-1.08,0.529-1.95,0.91-2.61c0.392-0.66,0.852-1.15,1.392-1.47s1.147-0.46,1.85-0.42H120.03
		z"/>
	<path opacity="0.8" fill="#FF5050" enable-background="new    " d="M119.201,20.6c-0.701-0.7-1.801-1.1-3.5-1.1H109.1v12.7h3.5V29
		h3.101c1.799,0,3-0.3,3.6-1c0.603-0.7,0.9-1.9,0.9-3.7C120.201,22.5,119.8,21.3,119.201,20.6z M116.3,25.7
		c-0.199,0.2-0.6,0.3-1.301,0.3H112.6v-3.6H115c0.701,0,1.104,0.1,1.301,0.3c0.199,0.2,0.303,0.7,0.303,1.4
		C116.6,25,116.5,25.5,116.3,25.7z"/>
	<polygon opacity="0.8" fill="#FF5050" enable-background="new    " points="100.1,33.3 100.1,35.1 97.3,35.1 97.3,33.3 98.6,33.1 	
		"/>
	<polygon opacity="0.8" fill="#FF5050" enable-background="new    " points="103.5,29.5 103.5,32.3 93.9,32.3 93.9,19.6 103.3,19.6 
		103.3,22.4 97.4,22.4 97.4,24.7 103,24.7 103,27 97.4,27 97.4,29.5 	"/>
	<path opacity="0.8" fill="#FF5050" enable-background="new    " d="M87.4,20.7c-0.8-0.8-2.199-1.1-4-1.1H76.8v5h-1.5v2.3h1.5v5.3
		H83.9c1.801,0,3-0.4,3.801-1.3c0.699-0.8,1-2,1-3.8v-2.7C88.6,22.7,88.201,21.4,87.4,20.7z M85,27.1c0,1.4-0.6,2.2-1.799,2.2h-3
		v-2.4h2v-2.3h-2v-2.1H83.3c0.699,0,1.199,0.2,1.4,0.5c0.2,0.3,0.3,0.8,0.3,1.5V27.1z"/>
	<polygon opacity="0.8" fill="#FF5050" enable-background="new    " points="70.3,15.2 66.9,17.5 65.7,17.5 67.5,15.2 	"/>
	<polygon opacity="0.8" fill="#FF5050" enable-background="new    " points="65.9,18.2 65.3,18.9 62.9,17.9 60.4,18.9 59.8,18.2 
		62.9,16 	"/>
</g>
<defs>
	<filter id="Adobe_OpacityMaskFilter" filterUnits="userSpaceOnUse" x="14.4" y="70.7" width="105.801" height="45.3">
		<feColorMatrix  type="matrix" values="1 0 0 0 0  0 1 0 0 0  0 0 1 0 0  0 0 0 1 0"/>
	</filter>
</defs>
<mask maskUnits="userSpaceOnUse" x="14.4" y="70.7" width="105.801" height="45.3" id="SVGID_1_">
	<g filter="url(#Adobe_OpacityMaskFilter)">
		<g>
			
				<linearGradient id="SVGID_2_" gradientUnits="userSpaceOnUse" x1="435.8953" y1="-1031.3901" x2="435.8953" y2="-980.5903" gradientTransform="matrix(1 0 0 -1 -367.7197 -910.8906)">
				<stop  offset="0.6828" style="stop-color:#000000;stop-opacity:0"/>
				<stop  offset="0.9892" style="stop-color:#FFFFFF;stop-opacity:0.3"/>
			</linearGradient>
			<rect x="13.15" y="69.7" fill="url(#SVGID_2_)" width="110.051" height="50.8"/>
		</g>
	</g>
</mask>
<g mask="url(#SVGID_1_)">
	<path fill="#D32027" d="M50,95.341H37.2c-3.6,0-6.8,1.693-8.3,4.233c-0.601,1.016-1,2.115-1,3.302c0,4.149,4.1,7.536,9.2,7.536
		c5.1,0,10.5-3.473,9.199-7.536c-0.199-0.254,3.4-0.339,5.7-0.339c0,6.012,0,10.585,0,10.585c0,1.185-1.1,2.03-2.5,2.03h-21
		c-3.3,0-8.417-1.043-11.017-3.5c-2.8-2.539-3.083-6.406-3.083-7.93v-30.99c0-1.188,1.1-2.032,2.5-2.032h32.8
		c1.4,0,2.5,0.932,2.5,2.032c0,0,0,16.342,0,20.998c0,0.17,0,0,0,0.34C52.2,94.662,50.7,95.341,50,95.341z M33.4,92.122h6v-5.927h-6
		V92.122z M32.4,92.122v-5.927h-6.5v5.927H32.4z M24.9,92.122v-5.927h-6.2v3.896c0,1.101,1.1,2.031,2.5,2.031H24.9z M25.3,74.257
		h-4.1v-0.085c-1.4,0-2.5,0.932-2.5,2.117v3.727h6.6V74.257z M32.4,74.172h-6v5.758h6V74.172z M39.9,74.172h-6.4v5.758h6.4V74.172z
		 M48,76.204c0-1.187-1.1-2.117-2.5-2.117h-4.6v5.759H48V76.204z M48,80.775H18.7v4.572h21.8v6.771h5c1.4,0,2.5-0.934,2.5-2.031
		V80.775z"/>
	<path fill="#D32027" d="M67.5,116l-1.801-1.947H66.9L70.3,116H67.5z M62.901,115.323L59.8,113.46l0.602-0.593l2.5,0.847
		l2.398-0.847l0.602,0.593L62.901,115.323z M67.3,111.682c-0.898,0.51-2.398,0.762-4.3,0.762c-2,0-3.399-0.254-4.3-0.762
		c-1.1-0.593-1.7-1.691-1.7-3.218v-3.048c0-1.523,0.601-2.625,1.7-3.218c0.9-0.509,2.4-0.763,4.3-0.763c2,0,3.4,0.254,4.3,0.763
		c1.102,0.593,1.7,1.692,1.7,3.218v3.048C69,109.986,68.401,111.089,67.3,111.682z M65.401,105.754c0-0.761-0.201-1.27-0.5-1.438
		c-0.301-0.17-1-0.256-1.9-0.256c-1,0-1.6,0.086-1.898,0.256c-0.399,0.254-0.602,0.678-0.602,1.521v2.454
		c0,0.765,0.199,1.271,0.602,1.438c0.302,0.168,0.898,0.252,1.898,0.252s1.602-0.084,1.9-0.252c0.398-0.254,0.5-0.678,0.5-1.438
		V105.754z"/>
	<path fill="#D32027" d="M87.401,111.343c-0.801,0.679-2.2,0.933-4,0.933H76.8v-4.232h-1.5v-1.947h1.5v-4.484h7.102
		c1.8,0,3,0.338,3.8,1.101c0.7,0.679,1,1.692,1,3.218v2.286C88.6,109.648,88.201,110.75,87.401,111.343z M85,105.924
		c0-1.186-0.6-1.863-1.801-1.863h-3v2.032h2v1.947h-2v1.778H83.3c0.699,0,1.199-0.17,1.398-0.424c0.2-0.254,0.301-0.68,0.301-1.271
		L85,105.924L85,105.924z"/>
	<path fill="#D32027" d="M98.6,100.844l-1.301-0.17V99.15h2.801v1.521L98.6,100.844z M97.401,103.893v2.116h5.601v1.947h-5.601
		v1.946h5.898v2.371h-9.398V101.52h9.601v2.371h-6.101V103.893z"/>
	<path fill="#D32027" d="M119.201,111.428c-0.699,0.594-1.8,0.932-3.5,0.932H109.1v-10.752h3.5v2.709h3.101
		c1.801,0,3,0.254,3.604,0.849c0.6,0.592,0.896,1.606,0.896,3.132S119.8,110.835,119.201,111.428z M116.3,107.109
		c-0.199-0.17-0.602-0.254-1.301-0.254H112.6v3.047H115c0.699,0,1.103-0.084,1.301-0.254c0.199-0.168,0.302-0.592,0.302-1.188
		C116.6,107.702,116.5,107.279,116.3,107.109z"/>
	<g>
		<path fill="#D32027" d="M57.006,70.7l-0.007,19.321l-0.028,4.916l0.294,0.211l5.318-0.008v-19.17c0.149,0,0.299,0,0.45,0
			c0.149,0,0.302,0.004,0.457,0.02c0.514,0,1.027,0.104,1.541,0.318c0.468,0.201,0.919,0.498,1.35,0.893
			c0.438,0.398,0.821,0.857,1.152,1.375c0.336,0.49,0.655,1.076,0.955,1.764c0.277,0.641,0.531,1.346,0.763,2.113
			c0.2,0.683,0.388,1.474,0.561,2.365c0.149,0.828,0.27,1.675,0.36,2.535c0.086,0.873,0.142,1.765,0.164,2.668h-2.146v5.121h8.229
			c-0.083-2.481-0.242-4.769-0.478-6.849c-0.232-2.05-0.528-3.884-0.886-5.508c-0.347-1.565-0.763-2.981-1.248-4.247
			c-0.45-1.186-0.973-2.242-1.563-3.172c-0.536-0.852-1.147-1.594-1.834-2.231c-0.641-0.596-1.327-1.071-2.059-1.43
			c-0.659-0.324-1.402-0.574-2.229-0.755c-0.745-0.145-1.532-0.217-2.358-0.217L57.006,70.7z"/>
		<path fill="#D32027" d="M84.837,70.7l0.009,20.044h-2.074l0.008-2.233h-5.517v6.632h20.775v-6.632h-5.502l-0.009,2.218h-2.146
			V75.869h1.916V70.7H84.837z"/>
		<path fill="#D32027" d="M99.667,70.7l0.006,17.392c0,1.243,0.111,2.321,0.334,3.24c0.225,0.918,0.529,1.656,0.914,2.216
			c0.388,0.56,0.851,0.974,1.389,1.242c0.539,0.269,1.154,0.386,1.851,0.353h15.873v-6.632l-5.541,0.019v1.492h-8.143
			c-0.187,0-0.353-0.063-0.497-0.189c-0.146-0.13-0.266-0.311-0.358-0.537c-0.093-0.229-0.16-0.5-0.205-0.813
			c-0.043-0.313-0.063-0.627-0.063-0.938l-0.009-11.452l8.171,0.033c0.335,0,0.604,0.195,0.797,0.59
			c0.188,0.395,0.296,0.936,0.313,1.627v3.627h5.535V77.67c0-1.143-0.119-2.156-0.359-3.039c-0.231-0.873-0.559-1.602-0.976-2.186
			c-0.401-0.58-0.866-1.022-1.397-1.324c-0.51-0.279-1.055-0.419-1.637-0.419H99.667V70.7z"/>
	</g>
</g>
</svg>
